<svg xmlns="http://www.w3.org/2000/svg" xmlns:xlink="http://www.w3.org/1999/xlink" width="270.925" height="288.902" viewBox="0 0 270.925 288.902">
  <defs>
    <linearGradient id="linear-gradient" x1="0.5" y1="1" x2="0.5" gradientUnits="objectBoundingBox">
      <stop offset="0" stop-color="#9a00b3"/>
      <stop offset="1" stop-color="#7f72ff"/>
    </linearGradient>
  </defs>
  <g id="Group_4733" data-name="Group 4733" transform="translate(3497.204 -1667.468)">
    <path id="Union_15" data-name="Union 15" d="M131.722,282.29l-16.2-10.911a131.934,131.934,0,0,1-57.565-22.036c-.485-.159-.753-.257-.753-.257A67.808,67.808,0,0,1,46.2,240.292q-.613-.528-1.218-1.061-1.306-1.149-2.58-2.333c-2.144-1.078-4.266-2.231-6.294-3.44q-.631.031-1.271.032a25.161,25.161,0,0,1-22.145-37.119l-.214-.462q-.265-.565-.524-1.132h-.019q-1.834-4.047-3.414-8.233a131.116,131.116,0,0,1-5.231-17.414l-.058-.255-.032-.143q-.175-.781-.34-1.566a.165.165,0,0,1-.024-.113A133.32,133.32,0,0,1,.012,141.427c0-.031,0-.062,0-.093,0-.11,0-.222,0-.332,0-.06,0-.119,0-.178,0-.089,0-.179,0-.269s0-.17,0-.255c0-.068,0-.139,0-.208,0-.157,0-.312,0-.469A132.284,132.284,0,0,1,20.732,68.329q.656-1.03,1.33-2.045a22.441,22.441,0,0,0-1.33,2.045s.106-.918.283-2.414l-.283.253L23.17,48.459c.084-.633.166-1.24.245-1.812A120.1,120.1,0,0,1,48.232,22.306L68.51,23.36A132.388,132.388,0,0,1,132.95,6.733c1.4,0,2.809.028,4.183.056,1.488.056,2.975.111,4.463.225l.373.025A132.91,132.91,0,0,1,158.474,9.18L181.793,0s37.135,14.422,60.533,46l1.462,20.156.056.085a90.627,90.627,0,0,1,14.489,29.006q2.14,6.045,3.69,12.35a133.713,133.713,0,0,1,2.015,54.457,58.681,58.681,0,0,1,.683,13.378c-.507,7.188-4.054,15.268-9.2,23.227a25.2,25.2,0,0,1-20.656,27.08,141.366,141.366,0,0,1-45.037,34.033l-.736.346L176.3,276.746a81.1,81.1,0,0,1-31.683,6.972A56.691,56.691,0,0,1,131.722,282.29Z" transform="translate(-3494.704 1670.152)" fill="#dd38f2" stroke="#dd38f2" stroke-miterlimit="10" stroke-width="5" opacity="0.19"/>
    <path id="Union_14" data-name="Union 14" d="M115.871,248.461l-14.251-9.6a116.019,116.019,0,0,1-50.638-19.4c-.426-.14-.662-.226-.662-.226a59.653,59.653,0,0,1-9.681-7.74q-.539-.464-1.071-.934-1.149-1.012-2.27-2.053c-1.886-.949-3.753-1.963-5.537-3.028q-.555.028-1.118.028a22.148,22.148,0,0,1-19.48-32.67l-.188-.406q-.233-.5-.461-1H10.5q-1.614-3.562-3-7.247a115.451,115.451,0,0,1-4.6-15.327l-.051-.225-.028-.126q-.154-.687-.3-1.378a.145.145,0,0,1-.021-.1A117.407,117.407,0,0,1,.011,124.479V124.4c0-.1,0-.2,0-.292,0-.052,0-.1,0-.157,0-.079,0-.158,0-.236s0-.15,0-.225,0-.122,0-.183c0-.138,0-.275,0-.413a116.479,116.479,0,0,1,18.238-62.75q.577-.906,1.17-1.8a19.753,19.753,0,0,0-1.17,1.8s.094-.808.249-2.125l-.249.223,2.144-15.587c.074-.557.146-1.092.216-1.6a105.679,105.679,0,0,1,21.83-21.424l17.838.928A116.406,116.406,0,0,1,116.951,5.926c1.235,0,2.471.024,3.68.049,1.309.049,2.617.1,3.926.2l.328.022A116.854,116.854,0,0,1,139.4,8.08L159.917,0s32.667,12.694,53.249,40.488l1.286,17.74.05.075a79.786,79.786,0,0,1,12.745,25.53q1.882,5.321,3.246,10.87a117.754,117.754,0,0,1,1.772,47.931,51.678,51.678,0,0,1,.6,11.774c-.446,6.327-3.566,13.438-8.092,20.444a22.175,22.175,0,0,1-18.17,23.835,124.357,124.357,0,0,1-39.617,29.955l-.648.3-11.249,14.635a71.309,71.309,0,0,1-27.871,6.136A49.843,49.843,0,0,1,115.871,248.461Z" transform="translate(-3478.704 1687.152)" stroke="rgba(0,0,0,0)" stroke-miterlimit="10" stroke-width="1" fill="url(#linear-gradient)"/>
  </g>
</svg>
