<svg xmlns="http://www.w3.org/2000/svg" xmlns:xlink="http://www.w3.org/1999/xlink" width="270.569" height="273.111" viewBox="0 0 270.569 273.111">
  <defs>
    <radialGradient id="radial-gradient" cx="0.19" cy="0.266" r="0.803" gradientTransform="translate(0)" gradientUnits="objectBoundingBox">
      <stop offset="0.006" stop-color="#ffb80b"/>
      <stop offset="0.258" stop-color="#feb50c"/>
      <stop offset="0.384" stop-color="#fdae10"/>
      <stop offset="0.482" stop-color="#fca017"/>
      <stop offset="0.566" stop-color="#f98e21"/>
      <stop offset="0.639" stop-color="#f7762e"/>
      <stop offset="0.662" stop-color="#f66d33"/>
      <stop offset="0.721" stop-color="#ef6735"/>
      <stop offset="0.806" stop-color="#db583d"/>
      <stop offset="0.907" stop-color="#bc4049"/>
      <stop offset="0.983" stop-color="#a02a54"/>
    </radialGradient>
  </defs>
  <g id="Group_4734" data-name="Group 4734" transform="translate(3179.207 -1667.447)">
    <g id="Group_4728" data-name="Group 4728" transform="translate(-3176.707 1670.152)" opacity="0.18">
      <path id="Union_3" data-name="Union 3" d="M115.371,266.778a132.057,132.057,0,0,1-66.1-28.45l-.028-.022-.308-.251-.027-.022-.308-.252-.068-.056-.273-.225-.041-.034-.3-.246-.075-.063-.3-.252a133.23,133.23,0,0,1-33.283-41.849,131.528,131.528,0,0,1-11.3-31.934q-.051-.237-.1-.476a.161.161,0,0,1-.023-.108A133.269,133.269,0,0,1,.012,136.913v-.072c0-.117,0-.23,0-.347,0-.056,0-.112,0-.169,0-.092,0-.183,0-.275s0-.169,0-.252,0-.14,0-.21c0-.156,0-.313,0-.469A132.244,132.244,0,0,1,16.1,71.7C15.264,48.853,36.85,22.586,69.915,8.746c21.646-9.06,43.633-10.879,60.639-6.391.742-.012,1.488-.019,2.233-.019,2.9,0,5.756.093,8.612.275l.354.023a131.557,131.557,0,0,1,47.53,12.3l.152.072.208.1.239.114.128.061.259.124.128.062.244.118.372.181a132.776,132.776,0,0,1-58.226,252.142A135.786,135.786,0,0,1,115.371,266.778Z" transform="translate(0 0)" fill="#dd38f2" stroke="#dd38f2" stroke-miterlimit="10" stroke-width="5"/>
    </g>
    <g id="Group_4729" data-name="Group 4729" transform="translate(-3160.883 1686.116)">
      <path id="Union_3-2" data-name="Union 3" d="M101.622,234.985A116.319,116.319,0,0,1,43.4,209.925l-.024-.02-.271-.221-.024-.02-.271-.222-.06-.049-.24-.2-.036-.03-.261-.217-.066-.055-.266-.222a117.353,117.353,0,0,1-29.316-36.862A115.853,115.853,0,0,1,2.6,143.68q-.045-.209-.089-.419a.142.142,0,0,1-.02-.095A117.387,117.387,0,0,1,.011,120.6v-.063c0-.1,0-.2,0-.306,0-.049,0-.1,0-.148,0-.081,0-.161,0-.242s0-.148,0-.222,0-.124,0-.185c0-.137,0-.275,0-.413A116.484,116.484,0,0,1,14.178,63.155C13.445,43.031,32.458,19.894,61.583,7.7,80.649-.277,100.016-1.879,115,2.074c.654-.011,1.31-.016,1.967-.016,2.555,0,5.07.082,7.586.242l.312.02a115.879,115.879,0,0,1,41.866,10.832l.134.063.184.087.21.1.113.054.228.11.113.054.215.1.327.16a116.953,116.953,0,0,1-51.287,222.093A119.6,119.6,0,0,1,101.622,234.985Z" transform="translate(0 0)" stroke="rgba(0,0,0,0)" stroke-miterlimit="10" stroke-width="1" fill="url(#radial-gradient)"/>
    </g>
  </g>
</svg>
