<svg xmlns="http://www.w3.org/2000/svg" xmlns:xlink="http://www.w3.org/1999/xlink" width="279.729" height="271.751" viewBox="0 0 279.729 271.751">
  <defs>
    <radialGradient id="radial-gradient" cx="0.19" cy="0.266" r="0.803" gradientUnits="objectBoundingBox">
      <stop offset="0.006" stop-color="#de6863"/>
      <stop offset="0.202" stop-color="#da6562"/>
      <stop offset="0.354" stop-color="#d15d61"/>
      <stop offset="0.492" stop-color="#c04f60"/>
      <stop offset="0.621" stop-color="#a93b5d"/>
      <stop offset="0.744" stop-color="#8b225a"/>
      <stop offset="0.861" stop-color="#660357"/>
      <stop offset="0.872" stop-color="#630057"/>
    </radialGradient>
  </defs>
  <g id="Group_4732" data-name="Group 4732" transform="translate(3804.441 -1675.636)">
    <path id="Union_13" data-name="Union 13" d="M115.425,266.17c-5.149-1.373-9.924-3.56-12.311-6.29q-6.215-1.672-12.179-3.92a24.577,24.577,0,0,1-10.914-.258c-5.864-1.629-8.5-8.505-8.694-9.032a132.7,132.7,0,0,1-11.939-7.8q-3.479-2.546-6.784-5.311-1.125-.939-2.23-1.9-3.793-3.3-7.321-6.894a132.812,132.812,0,0,1-18.029-22.852q-1.684-2.69-3.239-5.472c-.812-1.451-1.6-2.93-2.379-4.409,0-.056-.028-.084-.056-.139-.574-1.125-1.12-2.25-1.648-3.385q-.334-.706-.659-1.415h-.017q-1.744-3.838-3.258-7.8-.715-1.871-1.375-3.769c-.239-.028-3.052-.414-3.052-2.945,0-.476,1.486-1.02,1.719-1.1Q9.608,166.806,8.5,162q-.273-1.185-.525-2.377a.161.161,0,0,1-.024-.112,132.389,132.389,0,0,1-2.824-26.393v-.047c0-.055,0-.111,0-.166,0-.029,0-.059,0-.088,0-.045,0-.09,0-.135s0-.084,0-.127,0-.068,0-.1c0-.076,0-.153,0-.229l0,0S-.653,125.838.062,123.4c.883-3.026,5.114-2.164,5.5-2.077q.54-6.592,1.715-12.992h0s-3.22-4.094-2.713-5.55a3.034,3.034,0,0,1,4.318-1.963A131.39,131.39,0,0,1,25.8,61.285q1.068-1.672,2.182-3.307c-.154-.233-5.328-8.173-1.667-14.58,5.049-8.849,18.971-5.967,18.971-5.967q1.541-1.493,3.131-2.938A132.311,132.311,0,0,1,137.737,0c1.4,0,2.8.027,4.171.056,1.484.056,2.968.112,4.451.223l.332.022a131.947,131.947,0,0,1,37.7,8.116q1.513.566,3.009,1.172,3.782,1.527,7.445,3.277l.059.028.01,0,.248.119c.25.116.5.225.75.35l0,0c.433-.216,11.773-5.791,16.977-.086,4.032,4.422,2.611,11.464,2.546,11.773q1.54,1.111,3.045,2.265h0a133.205,133.205,0,0,1,12.111,10.493s6.539-2.693,7.379-1.4c2.111,3.256-.381,8.791-.381,8.791,1.54,1.73,3.024,3.544,4.48,5.358A129.533,129.533,0,0,1,255.9,72.113q1.147,2.231,2.211,4.511c.206.026,4.7.6,5.3,1.832,1.8,3.712-.822,8.28-.988,8.563a128.294,128.294,0,0,1,4.059,13.336,131.5,131.5,0,0,1,3.891,31.871c0,.088,0,.177,0,.265a10.862,10.862,0,0,1,4.311,9.588c-.518,6.282-5.256,7.758-5.486,7.826a128.8,128.8,0,0,1-4,18.935,130.712,130.712,0,0,1-12.534,29.416c.282.226,4.335,3.557,2.531,6.621-2.052,3.483-9.966,4.811-9.966,4.811l-.134.176a132.466,132.466,0,0,1-107.354,54.559c-2.352,0-4.731-.056-7.055-.2h-.052c-.683-.015-1.347-.055-1.989-.114q-.7-.047-1.4-.1a3.968,3.968,0,0,0,.384.4,13.557,13.557,0,0,1-7.89,2.335A16.665,16.665,0,0,1,115.425,266.17Z" transform="translate(-3801.947 1678.136)" fill="#dd38f2" stroke="#dd38f2" stroke-miterlimit="10" stroke-width="5" opacity="0.23"/>
    <path id="Union_12" data-name="Union 12" d="M101.794,235.465c-4.541-1.213-8.752-3.149-10.856-5.564q-5.481-1.479-10.741-3.467a21.614,21.614,0,0,1-9.625-.228c-5.177-1.443-7.5-7.536-7.669-7.992A116.982,116.982,0,0,1,51.948,211l-.078-.058-.12-.089q-2.741-2.041-5.358-4.236-.87-.728-1.727-1.474-3.37-2.927-6.5-6.111a117.406,117.406,0,0,1-16.31-20.761l0,0-.06-.1q-1.336-2.163-2.579-4.393c-.715-1.284-1.406-2.593-2.1-3.9,0-.051-.024-.076-.049-.124-.512-1-1-2.008-1.466-3.02q-.288-.611-.569-1.226h-.016q-1.64-3.62-3.048-7.365-.537-1.426-1.037-2.87c-.207-.024-2.692-.365-2.692-2.6,0-.422,1.312-.9,1.517-.975q-1.407-4.534-2.448-9.219l-.029-.131-.051-.231c-.066-.3-.131-.6-.195-.906-.021-.02-.021-.057-.021-.1l-.065-.317-.005-.025-.011-.051a117.41,117.41,0,0,1-2.4-21.808v-.01c0-.112,0-.224,0-.336,0-.033,0-.066,0-.1,0-.092,0-.186,0-.279q0-.086,0-.173c0-.074,0-.149,0-.223s0-.156,0-.234q0-.089,0-.177,0-.2,0-.409l0,0s-5.09-5.644-4.462-7.8c.779-2.674,4.506-1.914,4.855-1.837q.476-5.834,1.513-11.495h0s-2.84-3.622-2.393-4.91a2.673,2.673,0,0,1,3.808-1.736A116.407,116.407,0,0,1,22.755,54.215q.942-1.479,1.925-2.925c-.147-.224-4.694-7.237-1.472-12.9,4.455-7.828,16.731-5.279,16.731-5.279q1.9-1.852,3.89-3.615A116.477,116.477,0,0,1,121.471,0c1.233,0,2.469.024,3.677.049,1.309.049,2.617.1,3.926.2l.328.022a116.08,116.08,0,0,1,32.608,6.954q2.2.808,4.355,1.713,2.445,1.019,4.831,2.145l.685.324c.3.149.593.273.889.42l.006,0c.4-.2,10.386-5.12,14.97-.076,3.554,3.908,2.305,10.131,2.246,10.413A117.439,117.439,0,0,1,203.36,33.453s5.768-2.384,6.508-1.235c1.862,2.882-.336,7.777-.336,7.777,1.358,1.531,2.666,3.135,3.951,4.739a114.809,114.809,0,0,1,12.2,19.06q1.012,1.974,1.95,3.992c.2.025,4.147.532,4.673,1.621,1.585,3.279-.722,7.316-.872,7.573a113.9,113.9,0,0,1,3.581,11.8,116.635,116.635,0,0,1,3.431,28.192c0,.078,0,.157,0,.235a9.62,9.62,0,0,1,3.8,8.484c-.458,5.56-4.64,6.863-4.839,6.921a114.189,114.189,0,0,1-3.531,16.751,115.815,115.815,0,0,1-11.053,26.023c.252.2,3.823,3.149,2.235,5.857-1.811,3.082-8.79,4.257-8.79,4.257l-.151.2a117.525,117.525,0,0,1-53.12,40.642,116.417,116.417,0,0,1-41.523,7.579c-2.075,0-4.173-.049-6.221-.173H115.2c-.6-.014-1.189-.049-1.757-.1q-.615-.041-1.229-.089a3.51,3.51,0,0,0,.338.357,11.935,11.935,0,0,1-6.959,2.067A14.649,14.649,0,0,1,101.794,235.465Z" transform="translate(-3785.225 1694.022)" stroke="rgba(0,0,0,0)" stroke-miterlimit="10" stroke-width="1" fill="url(#radial-gradient)"/>
  </g>
</svg>
