<svg xmlns="http://www.w3.org/2000/svg" xmlns:xlink="http://www.w3.org/1999/xlink" width="278.916" height="279.826" viewBox="0 0 278.916 279.826">
  <defs>
    <radialGradient id="radial-gradient" cx="0.19" cy="0.266" r="0.803" gradientUnits="objectBoundingBox">
      <stop offset="0.006" stop-color="#0cc463"/>
      <stop offset="0.206" stop-color="#0bc063"/>
      <stop offset="0.361" stop-color="#0ab764"/>
      <stop offset="0.502" stop-color="#08a667"/>
      <stop offset="0.633" stop-color="#068f6a"/>
      <stop offset="0.758" stop-color="#03716e"/>
      <stop offset="0.872" stop-color="#004f74"/>
    </radialGradient>
  </defs>
  <g id="Group_4735" data-name="Group 4735" transform="translate(2861.427 -1660.732)">
    <path id="Union_17" data-name="Union 17" d="M119.442,273.549c-14.629-2.663-30.287-12.621-41.833-23.819a132.192,132.192,0,0,1-14.657-9.441q-3.234-2.4-6.317-4.982-1.171-.98-2.318-1.986-3.856-3.374-7.435-7.047a132.808,132.808,0,0,1-17.3-21.908q-1.927-3.043-3.69-6.2c-.562-1.009-1.111-2.032-1.656-3.058-9.845-3.727-19.156-11.2-22.488-23.447-3.911-14.381-.847-37.24,5.1-48.774a62.147,62.147,0,0,1,2.62-6.995A100.482,100.482,0,0,1,19.979,81.663a132.337,132.337,0,0,1,29.36-42.63q.915-.889,1.848-1.762,3.869-3.624,8.021-6.934a41.866,41.866,0,0,1,2.223-12.826A19.936,19.936,0,0,1,65.6,8.991a17.5,17.5,0,0,1,6.153-5.73C83.569-2.818,99.13.455,107.058,6.118a132.421,132.421,0,0,1,34.505-4.547c1.4,0,2.795.03,4.162.058,1.48.055,2.961.111,4.441.224l.293.02a132.023,132.023,0,0,1,17.393,2.313c15.325-4.029,33.59-1.629,44.367,8.315a47.3,47.3,0,0,1,11.687,17.817,133.036,133.036,0,0,1,10.289,9.1c1.453,1.4,2.848,2.848,4.245,4.328.922,1.005,1.842,2.039,2.737,3.072,1.536,1.732,3.016,3.549,4.469,5.364q1.861,2.363,3.614,4.809c7.541-.2,15.932,2.471,17.986,7.581,2.73,6.784.835,15.564-2.523,20.857A128.752,128.752,0,0,1,270,102a132.452,132.452,0,0,1-12.018,94.812c3.577,10.246,2.65,23.624-7.38,30.743-5.03,3.569-13.583,5.716-21.344,5.4a131.921,131.921,0,0,1-40.719,24.659q-3.641,1.386-7.379,2.558a86.725,86.725,0,0,1-47.663,14.63A78.506,78.506,0,0,1,119.442,273.549Z" transform="translate(-2858.891 1663.25)" fill="#dd38f2" stroke="#dd38f2" stroke-miterlimit="10" stroke-width="5" opacity="0.19"/>
    <path id="Union_16" data-name="Union 16" d="M105.592,241.811c-12.932-2.354-26.775-11.156-36.982-21.055a116.866,116.866,0,0,1-12.957-8.345q-2.859-2.117-5.585-4.4-1.035-.866-2.049-1.756-3.409-2.983-6.573-6.229a117.4,117.4,0,0,1-15.295-19.366q-1.7-2.69-3.262-5.484c-.5-.892-.982-1.8-1.464-2.7-8.7-3.295-16.935-9.9-19.88-20.727C-1.912,139.027.8,118.821,6.052,108.625a54.934,54.934,0,0,1,2.316-6.183,88.819,88.819,0,0,1,9.294-30.254A116.982,116.982,0,0,1,43.618,34.5q.809-.786,1.634-1.558,3.42-3.2,7.091-6.129a37.006,37.006,0,0,1,1.965-11.338,17.622,17.622,0,0,1,3.684-7.532,15.474,15.474,0,0,1,5.44-5.066C73.879-2.491,87.635.4,94.643,5.408a117.074,117.074,0,0,1,30.5-4.019c1.235,0,2.471.027,3.68.051,1.309.049,2.617.1,3.926.2l.259.017A116.722,116.722,0,0,1,148.388,3.7c13.548-3.562,29.695-1.44,39.222,7.35A41.807,41.807,0,0,1,197.942,26.8a117.606,117.606,0,0,1,9.1,8.043c1.284,1.235,2.517,2.517,3.753,3.826.815.889,1.629,1.8,2.42,2.715,1.358,1.531,2.666,3.137,3.951,4.742q1.645,2.089,3.195,4.251c6.667-.172,14.085,2.184,15.9,6.7,2.414,6,.738,13.758-2.23,18.437a113.809,113.809,0,0,1,4.661,14.654,117.077,117.077,0,0,1-10.625,83.811c3.162,9.057,2.342,20.883-6.524,27.176-4.447,3.155-12.008,5.053-18.869,4.777a116.626,116.626,0,0,1-36,21.8q-3.219,1.225-6.524,2.261a76.672,76.672,0,0,1-42.136,12.932A69.407,69.407,0,0,1,105.592,241.811Z" transform="translate(-2843.012 1679.192)" stroke="rgba(0,0,0,0)" stroke-miterlimit="10" stroke-width="1" fill="url(#radial-gradient)"/>
  </g>
</svg>
