<svg xmlns="http://www.w3.org/2000/svg" xmlns:xlink="http://www.w3.org/1999/xlink" width="282.017" height="278.446" viewBox="0 0 282.017 278.446">
  <defs>
    <radialGradient id="radial-gradient" cx="0.19" cy="0.266" r="0.834" gradientTransform="translate(0.032) scale(0.935 1)" gradientUnits="objectBoundingBox">
      <stop offset="0.006" stop-color="#ff9aff"/>
      <stop offset="0.093" stop-color="#fb94ff"/>
      <stop offset="0.209" stop-color="#f083ff"/>
      <stop offset="0.342" stop-color="#df67ff"/>
      <stop offset="0.486" stop-color="#c740ff"/>
      <stop offset="0.639" stop-color="#a810ff"/>
      <stop offset="0.684" stop-color="#9f00ff"/>
      <stop offset="0.743" stop-color="#9800f8"/>
      <stop offset="0.828" stop-color="#8700e4"/>
      <stop offset="0.929" stop-color="#6a00c5"/>
      <stop offset="1" stop-color="#5200ab"/>
    </radialGradient>
  </defs>
  <g id="Group_4736" data-name="Group 4736" transform="translate(2535.319 -1661.431)">
    <path id="Union_18" data-name="Union 18" d="M133.254,273.255h-.028c-3.683-.2-7.34-.534-10.94-.981A139.51,139.51,0,0,1,58.392,246.8c-1.728-1.261-3.432-2.547-5.08-3.86-2.46-1.9-5.911-9.81-7.417-13.475C37.743,224.511,30,219.431,30,219.431a138.567,138.567,0,0,1-12.337-18.486q-1.3-2.306-2.512-4.7c0-.053-.055-.086-.083-.141Q13.818,193.55,12.644,191h-.028A139.844,139.844,0,0,1,6.308,174.33c-1.284-4.112-2.4-8.334-3.293-12.64a.158.158,0,0,1-.028-.105s0,0,0-.006c-.615-2.992-1.146-6.039-1.563-9.114A138.911,138.911,0,0,1,0,132.472c0-1.565.028-3.156.083-4.7.058-2.323.2-4.643.42-6.905.168-2.265.42-4.532.7-6.767a3.564,3.564,0,0,1,.055-.506c.214-1.594.449-3.167.713-4.729q.043-.281.095-.553.343-1.978.755-3.944A125.9,125.9,0,0,1,6.084,91.426a129.6,129.6,0,0,1,6.449-17.195,136.186,136.186,0,0,1,8.29-15.572c4.752-2.6,9.692-4.966,12.742-6.382,1.917-.9,2.979-1.357,3-1.366h0a129.875,129.875,0,0,1,12-13.42A131.635,131.635,0,0,1,140.735,0c1.4,0,2.791.025,4.16.053,1.48.055,2.959.116,4.436.224,4.1.279,8.18.727,12.171,1.369.055,0,.083.028.138.028,3.351.5,6.645,1.175,9.883,1.958,4.185,1.007,8.29,2.182,12.309,3.578,0,0,27.593,2.776,34.052,7.3a143.248,143.248,0,0,1,21.408,17.28c1.537,1.482,3.017,3.047,4.524,4.613.975,1.064,1.952,2.182,2.9,3.271,1.62,1.847,3.21,3.775,4.745,5.707a140.063,140.063,0,0,1,14.681,22.98c1.62,3.133,3.1,6.349,4.467,9.62,0,.028.028.055.028.086a162.452,162.452,0,0,1,4.944,40.245,176.473,176.473,0,0,1-2.16,27.348c.069.3,3.313,14.607,3.581,22.27l-1,3.6a4.593,4.593,0,0,1-.141.5A140.48,140.48,0,0,1,140.735,273.446C138.25,273.446,135.71,273.391,133.254,273.255ZM267.683,169.634Zm5.531-22.676c.076-.43.141-.828.193-1.19C273.343,146.169,273.279,146.567,273.214,146.958Z" transform="translate(-2532.819 1663.931)" fill="#dd38f2" stroke="#dd38f2" stroke-miterlimit="10" stroke-width="5" opacity="0.19"/>
    <path id="Union_19" data-name="Union 19" d="M117.86,241.277h-.024c-3.257-.176-6.492-.471-9.676-.867a123.513,123.513,0,0,1-56.513-22.49c-1.529-1.113-3.035-2.249-4.493-3.408-2.176-1.677-5.228-8.662-6.56-11.9-7.211-4.375-14.055-8.861-14.055-8.861A122.337,122.337,0,0,1,15.627,177.43q-1.147-2.036-2.222-4.146c0-.047-.049-.076-.073-.124q-1.11-2.26-2.149-4.515h-.024a123.347,123.347,0,0,1-5.579-14.716c-1.135-3.631-2.122-7.359-2.913-11.161a.139.139,0,0,1-.024-.093s0,0,0,0c-.544-2.642-1.013-5.333-1.382-8.048A122.45,122.45,0,0,1,0,116.969c0-1.382.024-2.786.073-4.146.051-2.051.173-4.1.371-6.1.149-2,.371-4,.618-5.975a3.142,3.142,0,0,1,.049-.447c.189-1.408.4-2.8.631-4.175q.038-.248.084-.488.3-1.746.668-3.482A111.009,111.009,0,0,1,5.382,80.727a114.31,114.31,0,0,1,5.7-15.182A120.181,120.181,0,0,1,18.418,51.8c4.2-2.295,8.572-4.385,11.27-5.635,1.7-.791,2.635-1.2,2.654-1.206h0A114.741,114.741,0,0,1,42.957,33.1,116.531,116.531,0,0,1,124.477,0c1.235,0,2.469.022,3.68.047,1.309.049,2.617.1,3.924.2,3.631.247,7.235.642,10.765,1.209.049,0,.073.024.122.024,2.964.444,5.877,1.038,8.741,1.729,3.7.889,7.332,1.926,10.887,3.16,0,0,24.406,2.451,30.118,6.444A126.661,126.661,0,0,1,211.65,28.067c1.36,1.309,2.669,2.691,4,4.073.862.94,1.726,1.926,2.566,2.889,1.433,1.631,2.84,3.333,4.2,5.039A123.645,123.645,0,0,1,235.4,60.359c1.433,2.766,2.742,5.606,3.951,8.494,0,.024.024.049.024.076a143.21,143.21,0,0,1,4.373,35.536,155.561,155.561,0,0,1-1.91,24.147c.061.268,2.93,12.9,3.167,19.664l-.889,3.182a4.047,4.047,0,0,1-.124.444,124.266,124.266,0,0,1-119.515,89.544C122.279,241.446,120.033,241.4,117.86,241.277Zm118.9-91.495Zm4.892-20.022c.067-.38.125-.731.171-1.051C241.766,129.063,241.709,129.415,241.652,129.761Z" transform="translate(-2516.819 1679.931)" stroke="rgba(0,0,0,0)" stroke-miterlimit="10" stroke-width="1" fill="url(#radial-gradient)"/>
  </g>
</svg>
