<svg xmlns="http://www.w3.org/2000/svg" width="96.714" height="52.242" viewBox="1040.75 1920.625 96.714 52.242"><g data-name="Group 4483"><g data-name="Group 4480"><g data-name="Path 38393"><path d="m1045.687 1958.604 7.023-2.961v-2.523c-.757-.855-2.19-2.75-2.691-5.29a9.334 9.334 0 0 1-.18-1.81v-6.409a1.45 1.45 0 0 1 .001-.02 1.45 1.45 0 0 0 0-.02 4.51 4.51 0 0 1 .011-.202c.046-.625.278-2.428 1.447-4.027a6.586 6.586 0 0 1 .334-.419 6.412 6.412 0 0 1 .161-.193c.744-.857 3.537-3.711 7.924-3.957a10.794 10.794 0 0 1 .35-.013h.07a10.663 10.663 0 0 1 2.32.31c3.611.894 5.77 3.424 6.108 3.843a4.415 4.415 0 0 1 .008.01c1.672 1.934 1.784 4.375 1.792 4.648a2.676 2.676 0 0 1 0 .02.932.932 0 0 1 0 .02v6.409a9.45 9.45 0 0 1-.32 2.427c-.592 2.23-1.856 3.889-2.55 4.673v2.523l7.024 2.96a1.5 1.5 0 0 1 .905 1.563 1.5 1.5 0 0 1-.107.401 1.496 1.496 0 0 1-.972.86 1.49 1.49 0 0 1-.991-.062l-7.94-3.347a1.498 1.498 0 0 1-.915-1.38v-4.114a1.498 1.498 0 0 1 .475-1.095c.02-.02 2.394-2.31 2.394-5.41v-6.378a2.958 2.958 0 0 0-.008-.105c-.035-.356-.191-1.475-.855-2.4a3.54 3.54 0 0 0-.212-.268 1.423 1.423 0 0 1-.061-.074c-.019-.024-2.291-2.867-6.003-3.032a7.565 7.565 0 0 0-.126-.005 7.713 7.713 0 0 0-1.66.228c-2.612.652-4.203 2.484-4.44 2.771a1.72 1.72 0 0 0-.03.038l-.06.074a3.716 3.716 0 0 0-.442.629c-.547.974-.627 2.031-.634 2.144v6.379c0 2.856 2.016 5.025 2.351 5.366a2.448 2.448 0 0 0 .047.047c.298.282.472.68.472 1.091v4.113a1.499 1.499 0 0 1-.917 1.38l-7.899 3.332c-3.238 1.602-3.15 4.17-3.144 4.278a1.518 1.518 0 0 1 .004.12 1.49 1.49 0 0 1-1.381 1.481 1.404 1.404 0 0 1-.002 0 1.545 1.545 0 0 1-.116.005 1.508 1.508 0 0 1-1.494-1.391 1.416 1.416 0 0 1-.002-.021c-.024-.385-.181-4.72 4.855-7.183a2 2 0 0 1 .076-.034Z" fill="#dd38f2" fill-rule="evenodd"/><path d="m1045.687 1958.604 7.023-2.961v-2.523c-.757-.855-2.19-2.75-2.691-5.29a9.334 9.334 0 0 1-.18-1.81v-6.409a1.45 1.45 0 0 1 .001-.02 1.45 1.45 0 0 0 0-.02 4.51 4.51 0 0 1 .011-.202c.046-.625.278-2.428 1.447-4.027a6.586 6.586 0 0 1 .334-.419 6.412 6.412 0 0 1 .161-.193c.744-.857 3.537-3.711 7.924-3.957a10.794 10.794 0 0 1 .35-.013h.07a10.663 10.663 0 0 1 2.32.31c3.611.894 5.77 3.424 6.108 3.843a4.415 4.415 0 0 1 .008.01c1.672 1.934 1.784 4.375 1.792 4.648a2.676 2.676 0 0 1 0 .02.932.932 0 0 1 0 .02v6.409a9.45 9.45 0 0 1-.32 2.427c-.592 2.23-1.856 3.889-2.55 4.673v2.523l7.024 2.96a1.5 1.5 0 0 1 .905 1.563 1.5 1.5 0 0 1-.107.401 1.496 1.496 0 0 1-.972.86 1.49 1.49 0 0 1-.991-.062l-7.94-3.347a1.498 1.498 0 0 1-.915-1.38v-4.114a1.498 1.498 0 0 1 .475-1.095c.02-.02 2.394-2.31 2.394-5.41v-6.378a2.958 2.958 0 0 0-.008-.105c-.035-.356-.191-1.475-.855-2.4a3.54 3.54 0 0 0-.212-.268 1.423 1.423 0 0 1-.061-.074c-.019-.024-2.291-2.867-6.003-3.032a7.565 7.565 0 0 0-.126-.005 7.713 7.713 0 0 0-1.66.228c-2.612.652-4.203 2.484-4.44 2.771a1.72 1.72 0 0 0-.03.038l-.06.074a3.716 3.716 0 0 0-.442.629c-.547.974-.627 2.031-.634 2.144v6.379c0 2.856 2.016 5.025 2.351 5.366a2.448 2.448 0 0 0 .047.047c.298.282.472.68.472 1.091v4.113a1.499 1.499 0 0 1-.917 1.38l-7.899 3.332c-3.238 1.602-3.15 4.17-3.144 4.278a1.518 1.518 0 0 1 .004.12 1.49 1.49 0 0 1-1.381 1.481 1.404 1.404 0 0 1-.002 0 1.545 1.545 0 0 1-.116.005 1.508 1.508 0 0 1-1.494-1.391 1.416 1.416 0 0 1-.002-.021c-.024-.385-.181-4.72 4.855-7.183a2 2 0 0 1 .076-.034Z" stroke-linejoin="round" stroke-linecap="round" stroke-width=".5" stroke="#dd38f2" fill="transparent"/></g></g><g data-name="Group 4481"><g data-name="Path 38394"><path d="m1131.323 1961.349-7.899-3.331a1.499 1.499 0 0 1-.916-1.38v-4.114c0-.416.172-.812.476-1.095.019-.02 2.393-2.31 2.393-5.41v-6.378c-.007-.125-.1-1.443-.863-2.505a3.538 3.538 0 0 0-.212-.268 1.403 1.403 0 0 1-.061-.074 2.752 2.752 0 0 0-.067-.08c-.402-.466-2.581-2.803-5.936-2.952a7.566 7.566 0 0 0-.126-.005c-3.478.097-5.722 2.557-6.083 2.981a2.314 2.314 0 0 0-.05.062 7.317 7.317 0 0 1-.014.015 1.788 1.788 0 0 1-.037.046.761.761 0 0 1-.006.007 3.715 3.715 0 0 0-.441.628c-.482.857-.602 1.777-.629 2.064a2.716 2.716 0 0 0-.006.081v6.379c0 3.1 2.374 5.39 2.398 5.413a1.514 1.514 0 0 1 .472 1.091v4.113a1.498 1.498 0 0 1-.917 1.38l-7.939 3.348a1.495 1.495 0 0 1-.403.108 1.499 1.499 0 0 1-1.56-.906 1.5 1.5 0 0 1-.107-.4 1.5 1.5 0 0 1 .906-1.563l7.023-2.961v-2.523a11.594 11.594 0 0 1-.366-.435c-.786-.982-1.896-2.682-2.325-4.854a9.334 9.334 0 0 1-.18-1.811v-6.409l.002-.04c.006-.253.103-2.378 1.457-4.229a6.586 6.586 0 0 1 .334-.419 6.414 6.414 0 0 1 .161-.193c.764-.88 3.686-3.863 8.275-3.97a2.254 2.254 0 0 1 .035 0 2.251 2.251 0 0 1 .035 0c5.002.116 8.023 3.65 8.428 4.153a4.418 4.418 0 0 1 .007.01 6.665 6.665 0 0 1 .531.704c1.02 1.554 1.215 3.222 1.252 3.778a4.192 4.192 0 0 1 .009.166 2.723 2.723 0 0 1 0 .02.964.964 0 0 1 0 .02v6.409a9.45 9.45 0 0 1-.32 2.427c-.518 1.95-1.55 3.464-2.264 4.337a11.452 11.452 0 0 1-.285.336v2.523l7.023 2.96a1.752 1.752 0 0 1 .075.035c5.161 2.524 4.869 7.014 4.854 7.204a1.498 1.498 0 0 1-1.493 1.38 1.568 1.568 0 0 1-.009 0 1.605 1.605 0 0 1-.11-.004 1.499 1.499 0 0 1-1.381-1.492 1.518 1.518 0 0 1 .003-.102c.007-.141.065-2.53-2.856-4.125a8.084 8.084 0 0 0-.288-.15Z" fill="#dd38f2" fill-rule="evenodd"/><path d="m1131.323 1961.349-7.899-3.331a1.499 1.499 0 0 1-.916-1.38v-4.114c0-.416.172-.812.476-1.095.019-.02 2.393-2.31 2.393-5.41v-6.378c-.007-.125-.1-1.443-.863-2.505a3.538 3.538 0 0 0-.212-.268 1.403 1.403 0 0 1-.061-.074 2.752 2.752 0 0 0-.067-.08c-.402-.466-2.581-2.803-5.936-2.952a7.566 7.566 0 0 0-.126-.005c-3.478.097-5.722 2.557-6.083 2.981a2.314 2.314 0 0 0-.05.062 7.317 7.317 0 0 1-.014.015 1.788 1.788 0 0 1-.037.046.761.761 0 0 1-.006.007 3.715 3.715 0 0 0-.441.628c-.482.857-.602 1.777-.629 2.064a2.716 2.716 0 0 0-.006.081v6.379c0 3.1 2.374 5.39 2.398 5.413a1.514 1.514 0 0 1 .472 1.091v4.113a1.498 1.498 0 0 1-.917 1.38l-7.939 3.348a1.495 1.495 0 0 1-.403.108 1.499 1.499 0 0 1-1.56-.906 1.5 1.5 0 0 1-.107-.4 1.5 1.5 0 0 1 .906-1.563l7.023-2.961v-2.523a11.594 11.594 0 0 1-.366-.435c-.786-.982-1.896-2.682-2.325-4.854a9.334 9.334 0 0 1-.18-1.811v-6.409l.002-.04c.006-.253.103-2.378 1.457-4.229a6.586 6.586 0 0 1 .334-.419 6.414 6.414 0 0 1 .161-.193c.764-.88 3.686-3.863 8.275-3.97a2.254 2.254 0 0 1 .035 0 2.251 2.251 0 0 1 .035 0c5.002.116 8.023 3.65 8.428 4.153a4.418 4.418 0 0 1 .007.01 6.665 6.665 0 0 1 .531.704c1.02 1.554 1.215 3.222 1.252 3.778a4.192 4.192 0 0 1 .009.166 2.723 2.723 0 0 1 0 .02.964.964 0 0 1 0 .02v6.409a9.45 9.45 0 0 1-.32 2.427c-.518 1.95-1.55 3.464-2.264 4.337a11.452 11.452 0 0 1-.285.336v2.523l7.023 2.96a1.752 1.752 0 0 1 .075.035c5.161 2.524 4.869 7.014 4.854 7.204a1.498 1.498 0 0 1-1.493 1.38 1.568 1.568 0 0 1-.009 0 1.605 1.605 0 0 1-.11-.004 1.499 1.499 0 0 1-1.381-1.492 1.518 1.518 0 0 1 .003-.102c.007-.141.065-2.53-2.856-4.125a8.084 8.084 0 0 0-.288-.15Z" stroke-linejoin="round" stroke-linecap="round" stroke-width=".5" stroke="#dd38f2" fill="transparent"/></g></g><g data-name="Group 4482"><g data-name="Path 38395"><path d="m1108.488 1964.347-11.525-4.86a1.735 1.735 0 0 1-1.06-1.598v-5.994a1.733 1.733 0 0 1 .55-1.269 4.192 4.192 0 0 0 .097-.096c.576-.59 3.535-3.834 3.535-8.114v-9.306a4.285 4.285 0 0 0-.013-.16c-.055-.6-.336-2.649-1.666-4.168a1.489 1.489 0 0 1-.07-.085 4.033 4.033 0 0 0-.102-.122c-.605-.703-3.861-4.208-8.903-4.468a11.488 11.488 0 0 0-.284-.012 11.65 11.65 0 0 0-2.514.344c-4.273 1.066-6.745 4.22-6.774 4.258-.023.03-.046.058-.07.085-1.355 1.547-1.622 3.637-1.67 4.198a3.785 3.785 0 0 0-.01.13v9.306c0 4.384 3.042 7.621 3.558 8.138a3.671 3.671 0 0 0 .073.072c.352.328.552.788.552 1.269v5.994c0 .698-.418 1.327-1.061 1.598l-11.525 4.86a11.752 11.752 0 0 0-1.057.59c-3.907 2.456-3.797 5.865-3.786 6.073a.897.897 0 0 0 0 .004 1.764 1.764 0 0 1 .003.1 1.743 1.743 0 0 1-1.618 1.738 1.798 1.798 0 0 1-.119.004 1.724 1.724 0 0 1-1.727-1.588 2.08 2.08 0 0 1-.002-.029c-.034-.534-.251-6.57 6.824-10.03a2.271 2.271 0 0 1 .088-.04l10.51-4.431v-4.144c-1.253-1.382-4.182-5.152-4.182-10.178v-9.386a4.997 4.997 0 0 1 .012-.211c.053-.76.355-3.379 1.999-5.66a8.972 8.972 0 0 1 .495-.626c.467-.587 4.577-5.503 11.463-5.888a15.31 15.31 0 0 1 .498-.02 2.538 2.538 0 0 1 .04 0 2.54 2.54 0 0 1 .04 0 15.118 15.118 0 0 1 3.287.44c5.2 1.286 8.274 4.965 8.674 5.468 2.075 2.396 2.434 5.437 2.494 6.278a5.11 5.11 0 0 1 .012.218 16.046 16.046 0 0 0 0 .005v9.382a13.343 13.343 0 0 1-.437 3.367c-.735 2.825-2.239 5.01-3.259 6.248a15.828 15.828 0 0 1-.486.563v4.144l10.51 4.431a2.136 2.136 0 0 1 .003.001 2.292 2.292 0 0 1 .085.039 15.508 15.508 0 0 1 1.557.873c5.485 3.514 5.298 8.666 5.267 9.157a1.967 1.967 0 0 1-.002.03 1.735 1.735 0 0 1-1.728 1.598 1.18 1.18 0 0 1-.002 0 1.869 1.869 0 0 1-.137-.005 1.736 1.736 0 0 1-1.598-1.728 1.757 1.757 0 0 1 .004-.122c.01-.198.145-3.953-4.39-6.43a12.337 12.337 0 0 0-.453-.235Z" fill="#fff" fill-rule="evenodd"/><path d="m1108.488 1964.347-11.525-4.86a1.735 1.735 0 0 1-1.06-1.598v-5.994a1.733 1.733 0 0 1 .55-1.269 4.192 4.192 0 0 0 .097-.096c.576-.59 3.535-3.834 3.535-8.114v-9.306a4.285 4.285 0 0 0-.013-.16c-.055-.6-.336-2.649-1.666-4.168a1.489 1.489 0 0 1-.07-.085 4.033 4.033 0 0 0-.102-.122c-.605-.703-3.861-4.208-8.903-4.468a11.488 11.488 0 0 0-.284-.012 11.65 11.65 0 0 0-2.514.344c-4.273 1.066-6.745 4.22-6.774 4.258-.023.03-.046.058-.07.085-1.355 1.547-1.622 3.637-1.67 4.198a3.785 3.785 0 0 0-.01.13v9.306c0 4.384 3.042 7.621 3.558 8.138a3.671 3.671 0 0 0 .073.072c.352.328.552.788.552 1.269v5.994c0 .698-.418 1.327-1.061 1.598l-11.525 4.86a11.752 11.752 0 0 0-1.057.59c-3.907 2.456-3.797 5.865-3.786 6.073a.897.897 0 0 0 0 .004 1.764 1.764 0 0 1 .003.1 1.743 1.743 0 0 1-1.618 1.738 1.798 1.798 0 0 1-.119.004 1.724 1.724 0 0 1-1.727-1.588 2.08 2.08 0 0 1-.002-.029c-.034-.534-.251-6.57 6.824-10.03a2.271 2.271 0 0 1 .088-.04l10.51-4.431v-4.144c-1.253-1.382-4.182-5.152-4.182-10.178v-9.386a4.997 4.997 0 0 1 .012-.211c.053-.76.355-3.379 1.999-5.66a8.972 8.972 0 0 1 .495-.626c.467-.587 4.577-5.503 11.463-5.888a15.31 15.31 0 0 1 .498-.02 2.538 2.538 0 0 1 .04 0 2.54 2.54 0 0 1 .04 0 15.118 15.118 0 0 1 3.287.44c5.2 1.286 8.274 4.965 8.674 5.468 2.075 2.396 2.434 5.437 2.494 6.278a5.11 5.11 0 0 1 .012.218 16.046 16.046 0 0 0 0 .005v9.382a13.343 13.343 0 0 1-.437 3.367c-.735 2.825-2.239 5.01-3.259 6.248a15.828 15.828 0 0 1-.486.563v4.144l10.51 4.431a2.136 2.136 0 0 1 .003.001 2.292 2.292 0 0 1 .085.039 15.508 15.508 0 0 1 1.557.873c5.485 3.514 5.298 8.666 5.267 9.157a1.967 1.967 0 0 1-.002.03 1.735 1.735 0 0 1-1.728 1.598 1.18 1.18 0 0 1-.002 0 1.869 1.869 0 0 1-.137-.005 1.736 1.736 0 0 1-1.598-1.728 1.757 1.757 0 0 1 .004-.122c.01-.198.145-3.953-4.39-6.43a12.337 12.337 0 0 0-.453-.235Z" stroke-linejoin="round" stroke-linecap="round" stroke-width=".75" stroke="#fff" fill="transparent"/></g></g></g></svg>