<svg xmlns="http://www.w3.org/2000/svg" width="82" height="48.521" viewBox="1302 1922.225 82 48.521"><g data-name="Group 4479"><path d="m1379.66 1930.41-.005-.008c-1.213-1.43-1.9-1.73-2.107-1.69a.2.2 0 0 0-.066.028c-.148.093-.375.468-.143 1.948a13.407 13.407 0 0 0 .059.345c2.095 5.241 2.521 10.885 1.257 16.754a34.195 34.195 0 0 1-.218.945 7.105 7.105 0 0 1-.2.54c-1.08 2.655-6.95 14.253-27.564 16.473a63.69 63.69 0 0 1-4.304.313 10.351 10.351 0 0 1-.087.004c-.87.035-5.744.144-10.863-1.463a21.674 21.674 0 0 1-6.114-2.953 15.437 15.437 0 0 1-6.504-10.838 1.957 1.957 0 0 1-.004-.04c-.038-.427-.246-3.838 2.648-7.032l1.654-1.825-.823 2.055a11.632 11.632 0 0 0-.682 2.52 13.545 13.545 0 0 0-.118.988 1.477 1.477 0 0 0-.002.025c-.026.41-.255 5.675 4.985 9.415 2.531 1.806 5.924 2.994 10.125 3.552a44.957 44.957 0 0 0 5.45.366 15.714 15.714 0 0 0 .355-.008c1.43-.047 6.87-.35 12.262-2.31a28.328 28.328 0 0 0 2.284-.942c4.543-2.117 9.128-5.834 10.133-12.314a17.63 17.63 0 0 0 .202-2.705c-.007-.202-.219-5.15-4.065-10.098a20.51 20.51 0 0 0-.055-.07 20.302 20.302 0 0 0-1.271-1.469c-4.053-4.256-11.704-8.691-25.987-8.691-.088.001-9.6.137-18.946 3.546a43.149 43.149 0 0 0-3.43 1.417c-7.718 3.595-15.514 10.224-15.514 22.33a1.14 1.14 0 0 0 0 .012c-.009.3-.107 6.097 3.965 12.469 1.355 1.711 2.135 1.98 2.328 1.95a.196.196 0 0 0 .064-.026c.147-.092.377-.463.146-1.936a13.176 13.176 0 0 0-.058-.339l-.038-.207a27.637 27.637 0 0 1-1.771-9.779c0-2.201.253-4.443.76-6.716a34.199 34.199 0 0 1 .165-.707 7.125 7.125 0 0 1 .2-.54c1.08-2.654 6.95-14.252 27.565-16.472a63.693 63.693 0 0 1 4.304-.313c.034-.003 4.863-.245 10.053 1.194a27.661 27.661 0 0 1 .896.264 21.68 21.68 0 0 1 6.115 2.954 15.433 15.433 0 0 1 6.502 10.838 1.127 1.127 0 0 1 .002.021c.03.307.297 3.805-2.645 7.05l-1.654 1.825.823-2.054a11.66 11.66 0 0 0 .687-2.548 13.565 13.565 0 0 0 .113-.96 1.502 1.502 0 0 0 .002-.025c.025-.387.23-5.069-4.11-8.736a13.536 13.536 0 0 0-.874-.679 18.022 18.022 0 0 0-4.896-2.4c-1.572-.514-3.317-.899-5.23-1.153a44.937 44.937 0 0 0-5.45-.366c-.051 0-6.12.06-12.19 2.166a31.475 31.475 0 0 0-.427.152 28.321 28.321 0 0 0-2.286.943c-5.14 2.396-10.333 6.841-10.333 15.019a6.925 6.925 0 0 0 .028.388c.122 1.282.762 5.492 4.033 9.702a20.503 20.503 0 0 0 .06.077 20.294 20.294 0 0 0 1.269 1.467c3.94 4.14 11.287 8.45 24.828 8.683a67.373 67.373 0 0 0 1.16.01 19.267 19.267 0 0 0 .446-.011c1.986-.07 10.283-.537 18.5-3.535a43.133 43.133 0 0 0 3.43-1.416c6.927-3.226 13.917-8.896 15.277-18.778a26.03 26.03 0 0 0 .237-3.552c.003-.066.169-5.484-3.45-11.64a26.64 26.64 0 0 0-.887-1.404Zm-30.522 8.824a17.84 17.84 0 0 0-6.139-1.053c-6.952 0-12.608 3.726-12.608 8.305 0 4.58 5.656 8.305 12.608 8.305 6.953 0 12.61-3.726 12.61-8.305a6.532 6.532 0 0 0-2.237-4.717c-1.097-1.043-2.546-1.913-4.234-2.535Z" fill="#dd38f2" fill-rule="evenodd" data-name="Path 38392"/><path d="M1335.169 1945.986a7.831 5.158 0 1 1 0 1" fill="#fff" fill-rule="evenodd" data-name="Ellipse 46"/></g></svg>