<svg xmlns="http://www.w3.org/2000/svg" width="60" height="58.811" viewBox="550 1917 60 58.811"><g data-name="Group 4476"><path d="M607.077 1947.619v-8.938a5.214 5.214 0 0 0-5.21-5.207h-1.248l-5.972-9.765-.004-.01-.007-.01-1.772-2.896c-1.384-2.569-3.156-3.416-4.4-3.677-2.367-.495-4.35.728-4.95 1.154a5.26 5.26 0 0 0-.05.036l-25.257 15.168h-2.996a5.214 5.214 0 0 0-5.211 5.207v31.92a5.216 5.216 0 0 0 5.21 5.21h46.658a5.215 5.215 0 0 0 5.209-5.21v-10.025a8.71 8.71 0 0 0 2.91-5.999 8.682 8.682 0 0 0 .013-.48 8.6 8.6 0 0 0-1.715-5.153 9.033 9.033 0 0 0-1.208-1.325Zm-3.807 14.99v7.993c0 .772-.63 1.402-1.402 1.402H555.21a1.406 1.406 0 0 1-1.405-1.402v-31.92c0-.773.63-1.401 1.405-1.401h46.657a1.403 1.403 0 0 1 1.402 1.4v6.905a.823.823 0 0 0-.053-.01c-.034-.005-.068-.009-.1-.016a2.663 2.663 0 0 0-.174-.032 4.771 4.771 0 0 1-.105-.018 8.643 8.643 0 0 0-1.585-.16h-8.037c-4.823 0-8.747 3.925-8.747 8.747 0 4.823 3.924 8.747 8.747 8.747h8.037a8.685 8.685 0 0 0 1.591-.162c.09-.015.179-.026.266-.047a1.178 1.178 0 0 1 .08-.013 1.171 1.171 0 0 0 .08-.014Zm-13.706-39.92.806 1.317-16.078 9.468H565.6l19.906-11.954a2.343 2.343 0 0 0 .196-.135c.007-.007.903-.657 1.799-.571a1.58 1.58 0 0 1 .186.029c.585.122 1.135.603 1.675 1.493a8.35 8.35 0 0 1 .202.353Zm11.689 36.349h-8.037a4.946 4.946 0 0 1-4.94-4.94 4.945 4.945 0 0 1 4.94-4.942h8.037a4.824 4.824 0 0 1 .883.09c.087.016.174.038.26.06a18.066 18.066 0 0 0 .054.014 4.532 4.532 0 0 1 .502.156 35.72 35.72 0 0 0 .046.017 4.183 4.183 0 0 1 .33.136c.123.057.24.127.36.194.13.076.266.146.391.234l.008.004a4.939 4.939 0 0 1 2.1 3.798 4.966 4.966 0 0 1 .007.238 4.899 4.899 0 0 1-1.22 3.238 5.017 5.017 0 0 1-.891.8l-.004.003a3.04 3.04 0 0 1-.25.152l-.01.005a6.618 6.618 0 0 0-.117.067l-.072.042a4.007 4.007 0 0 1-.308.164 3.37 3.37 0 0 1-.272.114l-.092.034c-.167.061-.337.114-.512.158a9.247 9.247 0 0 0-.009.003l-.043.01a3.487 3.487 0 0 1-.258.061c-.287.052-.58.09-.883.09Zm-5.093-25.564h-14.365l10.56-6.22 3.805 6.22Z" fill="#dd38f2" fill-rule="evenodd" data-name="Path 1423"/><path d="M593.596 1951.4a2.696 2.696 0 0 0-2.696 2.697 2.696 2.696 0 0 0 2.696 2.697 2.697 2.697 0 0 0 2.697-2.697 2.697 2.697 0 0 0-2.697-2.697Z" fill="#fff" fill-rule="evenodd" data-name="Path 1424"/></g></svg>