<svg xmlns="http://www.w3.org/2000/svg" width="86.532" height="86.246" viewBox="789.027 1904.458 86.532 86.246"><g data-name="Group 4477"><g data-name="Path 38388"><path d="m833.277 1956.534-2.466-1.423-3.713 6.432 2.465 1.423a15.567 15.567 0 0 0 21.242-5.691 15.573 15.573 0 0 0-1.124-17.23l-4.425 7.663a8.094 8.094 0 0 1-.647 5.415 8.198 8.198 0 0 1-.236.438 8.132 8.132 0 0 1-11.096 2.973Z" fill="#fff" fill-rule="evenodd"/><path d="m833.277 1956.534-2.466-1.423-3.713 6.432 2.465 1.423a15.567 15.567 0 0 0 21.242-5.691 15.573 15.573 0 0 0-1.124-17.23l-4.425 7.663a8.094 8.094 0 0 1-.647 5.415 8.198 8.198 0 0 1-.236.438 8.132 8.132 0 0 1-11.096 2.973Z" stroke-linejoin="round" stroke-linecap="round" stroke-width="2.5" stroke="#271346" fill="transparent"/></g><g data-name="Path 38389"><path d="m840.85 1934.19-5.872 10.17a15.439 15.439 0 0 0-2.062 7.07 15.616 15.616 0 0 0 .012 1.583l1.786 1.031a5.242 5.242 0 0 0 4.66.29 5.254 5.254 0 0 0 1.106-.632 8.088 8.088 0 0 1 .694-5.188 8.19 8.19 0 0 1 .236-.44l5.872-10.17a8.132 8.132 0 0 1 11.096-2.974c3.88 2.24 5.213 7.217 2.973 11.096l-5.872 10.171a8.08 8.08 0 0 1-1.969 2.289 8.077 8.077 0 0 1-.158.123 2.445 2.445 0 0 0-.027.048 1.972 1.972 0 0 1-.03.055 18.296 18.296 0 0 1-7.282 7.032 18.581 18.581 0 0 1-2.554 1.12 15.575 15.575 0 0 0 18.452-6.953l5.872-10.171a15.567 15.567 0 0 0-5.691-21.242c-7.425-4.287-16.954-1.734-21.242 5.692Zm12.475 24.467-.002.003" fill="#dd38f2" fill-rule="evenodd"/><path d="m840.85 1934.19-5.872 10.17a15.439 15.439 0 0 0-2.062 7.07 15.616 15.616 0 0 0 .012 1.583l1.786 1.031a5.242 5.242 0 0 0 4.66.29 5.254 5.254 0 0 0 1.106-.632 8.088 8.088 0 0 1 .694-5.188 8.19 8.19 0 0 1 .236-.44l5.872-10.17a8.132 8.132 0 0 1 11.096-2.974c3.88 2.24 5.213 7.217 2.973 11.096l-5.872 10.171a8.08 8.08 0 0 1-1.969 2.289 8.077 8.077 0 0 1-.158.123 2.445 2.445 0 0 0-.027.048 1.972 1.972 0 0 1-.03.055 18.296 18.296 0 0 1-7.282 7.032 18.581 18.581 0 0 1-2.554 1.12 15.575 15.575 0 0 0 18.452-6.953l5.872-10.171a15.567 15.567 0 0 0-5.691-21.242c-7.425-4.287-16.954-1.734-21.242 5.692Zm12.475 24.467-.002.003" stroke-linejoin="round" stroke-linecap="round" stroke-width="2.5" stroke="#271346" fill="transparent"/></g><g data-name="Path 38390"><path d="m831.229 1936.593 3.043 1.757 3.714-6.432-3.044-1.757c-7.425-4.287-16.954-1.734-21.241 5.692a15.576 15.576 0 0 0 1.571 17.79l4.234-7.334a8.11 8.11 0 0 1 .396-6.315 8.198 8.198 0 0 1 .23-.428 8.132 8.132 0 0 1 11.097-2.973Z" fill="#fff" fill-rule="evenodd"/><path d="m831.229 1936.593 3.043 1.757 3.714-6.432-3.044-1.757c-7.425-4.287-16.954-1.734-21.241 5.692a15.576 15.576 0 0 0 1.571 17.79l4.234-7.334a8.11 8.11 0 0 1 .396-6.315 8.198 8.198 0 0 1 .23-.428 8.132 8.132 0 0 1 11.097-2.973Z" stroke-linejoin="round" stroke-linecap="round" stroke-width="2.5" stroke="#271346" fill="transparent"/></g><g data-name="Path 38391"><path d="m823.175 1947.086-5.873 10.172a8.132 8.132 0 0 1-11.096 2.973 8.132 8.132 0 0 1-2.973-11.096l5.873-10.171c.249-.432.533-.83.845-1.197a18.276 18.276 0 0 1 1.468-3.232 18.306 18.306 0 0 1 5.695-6.087 18.446 18.446 0 0 1 1.312-.8 15.572 15.572 0 0 0-15.752 7.602l-5.873 10.171c-4.287 7.426-1.733 16.955 5.692 21.242 7.426 4.287 16.954 1.733 21.241-5.692l5.873-10.171a15.442 15.442 0 0 0 2.063-8.382 15.68 15.68 0 0 0-.288-2.417l-1.383-.798a5.256 5.256 0 0 0-6.318.818 8.11 8.11 0 0 1-.506 7.065Z" fill="#dd38f2" fill-rule="evenodd"/><path d="m823.175 1947.086-5.873 10.172a8.132 8.132 0 0 1-11.096 2.973 8.132 8.132 0 0 1-2.973-11.096l5.873-10.171c.249-.432.533-.83.845-1.197a18.276 18.276 0 0 1 1.468-3.232 18.306 18.306 0 0 1 5.695-6.087 18.446 18.446 0 0 1 1.312-.8 15.572 15.572 0 0 0-15.752 7.602l-5.873 10.171c-4.287 7.426-1.733 16.955 5.692 21.242 7.426 4.287 16.954 1.733 21.241-5.692l5.873-10.171a15.442 15.442 0 0 0 2.063-8.382 15.68 15.68 0 0 0-.288-2.417l-1.383-.798a5.256 5.256 0 0 0-6.318.818 8.11 8.11 0 0 1-.506 7.065Z" stroke-linejoin="round" stroke-linecap="round" stroke-width="2.5" stroke="#271346" fill="transparent"/></g></g></svg>