<svg xmlns="http://www.w3.org/2000/svg" width="33.631" height="33.631" viewBox="536 2699 33.631 33.631"><g data-name="Group 4457"><path d="M536.84 2714.928a16 16 0 1 1-.005.1" fill="#4a1062" fill-rule="evenodd" data-name="Ellipse 24"/><g data-name="Group 20"><path d="M555.405 2710.005h-.023a3.469 3.469 0 0 0-.034 0c-.28 0-.317.072-1.428 1.905a860.886 860.886 0 0 1-.284.47c-.21.347-.453.746-.733 1.204a404.353 404.353 0 0 1-.405.662l-.719-1.182c-.456-.75-.466-.767-.626-.838a8.568 8.568 0 0 0-.011-.005l-4.417-1.946a.514.514 0 0 0-.209-.044.515.515 0 0 0-.28.083.515.515 0 0 0-.236.433v9.222a.516.516 0 0 0 .32.478l4.443 1.83c.16.067.343.048.486-.05a.514.514 0 0 0 .227-.426.51.51 0 0 0 0-.003l-.02-3.229 8.1 4.033a3.35 3.35 0 0 0 .026.013l.037.018a.52.52 0 0 0 .214.053.51.51 0 0 0 .013 0 .516.516 0 0 0 .275-.08.512.512 0 0 0 .242-.436v-9.389a.463.463 0 0 0-.09-.274c-.202-.287-.76-.57-1.881-1.118a552.84 552.84 0 0 0-.201-.099c-.566-.276-1.256-.613-2.09-1.038a101.46 101.46 0 0 1-.282-.145.638.638 0 0 0-.227-.095.569.569 0 0 0-.113-.012.482.482 0 0 0-.074.005Zm-4.966 11.022-3.406-1.403v-8.084l3.357 1.48.049 8.007Zm8.683-8.113-3.72 6.073-.342-.555a1476.849 1476.849 0 0 1-.352-.572c-.393-.64-.914-1.49-1.606-2.623a571.88 571.88 0 0 0 .574-.935c.585-.954 1.006-1.65 1.313-2.156a748.724 748.724 0 0 0 .25-.415l.278-.458a25.718 25.718 0 0 1 .076-.124c1.25.642 2.125 1.076 2.72 1.368a272.36 272.36 0 0 0 .36.176 716.47 716.47 0 0 1 .13.063l.317.157a17.642 17.642 0 0 1 .002 0Zm.209 1.579v6.846l-3.168-1.563a13.759 13.759 0 0 0 .149-.24c.108-.18.23-.387.371-.63a310.042 310.042 0 0 0 .204-.35c.423-.73.96-1.657 1.702-2.868a123.857 123.857 0 0 1 .742-1.195Zm-5.322 4.203-2.56-1.287-.017-2.934 2.394 3.92a3334.547 3334.547 0 0 1 .183.3Z" fill="#fff" fill-rule="evenodd" data-name="Path 22"/></g></g></svg>