<svg xmlns="http://www.w3.org/2000/svg" width="32" height="32" viewBox="493 2700 32 32"><g data-name="Group 4456"><path d="M509 2700c8.837 0 16 7.163 16 16s-7.163 16-16 16-16-7.163-16-16 7.163-16 16-16Z" fill="#4a1062" fill-rule="evenodd" data-name="Path 38382"/><path d="m512.248 2712.684-7.484 3.824-2.542-.727 12.544-4.789a1.152 1.152 0 0 1 .05-.018c.164-.054.217-.025.226-.018.014.017.04.093.015.247a.984.984 0 0 1-.006.03l-2.072 10.234a.533.533 0 0 1-.113.253.14.14 0 0 1-.1.044.475.475 0 0 1-.264-.116l-4.225-3.402 4.531-4.815a.473.473 0 0 0 .127-.276.473.473 0 0 0-.093-.333.473.473 0 0 0-.324-.187.472.472 0 0 0-.27.05Zm2.18-2.577-12.649 4.828c-.672.257-.779.643-.779.863a.675.675 0 0 0 0 .019.684.684 0 0 0 .018.135c.045.194.191.446.615.629a2.104 2.104 0 0 0 .195.072l2.619.75 1.413 4.04a1.529 1.529 0 0 0 .323.545 1.147 1.147 0 0 0 .844.375 1.275 1.275 0 0 0 .657-.189 1.675 1.675 0 0 0 .275-.206l1.6-1.474 2.322 1.87.037.03c.268.208.561.318.849.318a1.11 1.11 0 0 0 1-.645 1.604 1.604 0 0 0 .14-.411l2.073-10.234a1.75 1.75 0 0 0 .032-.244c.01-.18-.01-.35-.061-.502a1.011 1.011 0 0 0-.175-.32c-.25-.305-.663-.422-1.117-.32a1.693 1.693 0 0 0-.231.07Zm-4.182 4.664-3.01 3.198a.474.474 0 0 0-.114.211l-.58 2.345-1.145-3.276 4.85-2.478Zm-1.434 5.123-1.472 1.356.523-2.12.95.764Z" fill="#fff" fill-rule="evenodd" data-name="Path 24"/></g></svg>