<svg xmlns="http://www.w3.org/2000/svg" width="32" height="32" viewBox="449 2700 32 32"><g data-name="Group 4455"><path d="M465 2700c8.837 0 16 7.163 16 16s-7.163 16-16 16-16-7.163-16-16 7.163-16 16-16Z" fill="#4a1062" fill-rule="evenodd" data-name="Path 38381"/><g data-name="Group 29"><path d="m462.51 2719.796 1.535-.726a.036.036 0 0 0 .02-.033.037.037 0 0 0 0-.006.036.036 0 0 0-.033-.03l-1.695-.108a2.463 2.463 0 0 1-1.197-.385 2.31 2.31 0 0 1-.645-.632 3.029 3.029 0 0 0 .429-.064 3.17 3.17 0 0 0 .162-.04l1.617-.45a.036.036 0 0 0 .026-.035.036.036 0 0 0-.028-.035l-1.63-.4a2.395 2.395 0 0 1-1.364-.879 2.41 2.41 0 0 1-.097-.137 2.452 2.452 0 0 1-.3-.64c.156.038.338.065.606.092l1.509.15a.038.038 0 0 0 .004 0 .034.034 0 0 0 .033-.023.036.036 0 0 0 .002-.014.036.036 0 0 0-.013-.028l-1.196-.933c-.751-.585-1.118-1.46-.997-2.333a2.434 2.434 0 0 1 .04-.218 9.096 9.096 0 0 0 .573.537c2.058 1.77 4.229 1.992 5.154 2.049a24.276 24.276 0 0 0 .163.01 46.005 46.005 0 0 1 .044.002c.098.005.17.01.202.018a.035.035 0 0 0 .005 0c.01.001.02-.002.027-.008a.036.036 0 0 0 .012-.028.036.036 0 0 0 0-.003 257.74 257.74 0 0 0-.017-.162c-.053-.515-.057-.527-.074-.59-.383-1.353.402-2.069.817-2.341a2.168 2.168 0 0 1 .054-.034c.737-.454 1.86-.564 2.74.008a2.372 2.372 0 0 1 .314.244.84.84 0 0 0 .503.222c.03.003.06.003.09.002a.784.784 0 0 0 .162-.022 5.96 5.96 0 0 0 .527-.158l-.221.634a.839.839 0 0 0-.017.052c-.088.317.125.366.212.373a.342.342 0 0 0 .017.001h.101a492.678 492.678 0 0 1-.098.132l-.092.122a203.94 203.94 0 0 1-.1.134 2.3 2.3 0 0 0-.446 1.38 2.477 2.477 0 0 0 .004.125c.047.918-.028 1.751-.221 2.497a5.32 5.32 0 0 1-1.594 2.68c-1.466 1.32-3.788 1.878-6.418 1.553a12.797 12.797 0 0 1-.414-.058 5.13 5.13 0 0 1-.565-.124 7.355 7.355 0 0 1-.598-.194 9.058 9.058 0 0 1-.21-.08 34.339 34.339 0 0 0 .122-.043c.74-.26 1.39-.52 2.448-1.02a67.37 67.37 0 0 0 .006-.003Zm9.841-8.14h-.02a319.385 319.385 0 0 1-.158.008l-.339.015a35.243 35.243 0 0 0-.036.001l-.053.003h-.008a.12.12 0 0 1-.006 0c-.028-.001-.135-.014-.098-.139a.259.259 0 0 1 .004-.012l.36-1.03.028-.077a.517.517 0 0 0 .007-.028c.061-.267-.205-.2-.269-.182a.41.41 0 0 0-.008.003l-.005.002c-.477.173-1.353.487-1.75.606a3.476 3.476 0 0 1-.089.026c-1.127-1.001-2.83-1.135-4.15-.323a2.894 2.894 0 0 0-1.424 2.507 3.222 3.222 0 0 0 .028.417 7.525 7.525 0 0 1-4.53-2.382v.003s-.732-.859-1.182-.15a1.182 1.182 0 0 0-.075.138 3.514 3.514 0 0 0-.291 1.29 3.32 3.32 0 0 0 .344 1.582l-.091-.036a.225.225 0 0 0-.046-.005c-.076 0-.162.045-.194.229a.753.753 0 0 0-.006.04l-.006.09v.002l-.015.2a2.337 2.337 0 0 0-.005.165c0 .22.029.448.085.677a3.433 3.433 0 0 0 .463 1.062 3.365 3.365 0 0 0 .349.445l-.017-.003a.082.082 0 0 0-.005 0c-.033 0-.09.02-.052.172l.18.545a3.346 3.346 0 0 0 1.646 1.955 19.347 19.347 0 0 1-.552.222c-.546.21-1.09.39-1.857.643l-.166.054a1.187 1.187 0 0 0-.09.039c-.605.289.07.717.07.717l.106.058a8.626 8.626 0 0 0 .154.082c.469.244 1.529.747 2.578.912a12.987 12.987 0 0 0 1.747.156 11.937 11.937 0 0 0 .242.003 10.163 10.163 0 0 0 2.835-.383c1.082-.315 2.032-.82 2.79-1.504 1.521-1.37 2.257-3.42 2.129-5.931a1.53 1.53 0 0 1-.002-.08c0-.22.048-.433.14-.618a1.216 1.216 0 0 1 .116-.19c.249-.332.815-1.105 1.156-1.572a937.817 937.817 0 0 0 .13-.178c.165-.225-.012-.246-.084-.247a.366.366 0 0 0-.007 0Z" fill="#fff" fill-rule="evenodd" data-name="Path 34"/></g></g></svg>